<mxfile host="app.diagrams.net" agent="Mozilla/5.0 (Macintosh; Intel Mac OS X 10_15_7) AppleWebKit/537.36 (KHTML, like Gecko) Chrome/126.0.0.0 Safari/537.36" version="24.7.4">
  <diagram name="Page-1" id="hJjBqLvvqv5Prr_OgkOo">
    <mxGraphModel dx="636" dy="364" grid="1" gridSize="10" guides="1" tooltips="1" connect="1" arrows="1" fold="1" page="1" pageScale="1" pageWidth="827" pageHeight="1169" math="0" shadow="0">
      <root>
        <mxCell id="0" />
        <mxCell id="1" parent="0" />
        <mxCell id="w2WjnWx_LfguR5dHV_uu-86" value="" style="rounded=0;whiteSpace=wrap;html=1;fillColor=#d5e8d4;strokeColor=#82b366;fontFamily=Helvetica;" parent="1" vertex="1">
          <mxGeometry x="120" y="200" width="400" height="300" as="geometry" />
        </mxCell>
        <mxCell id="w2WjnWx_LfguR5dHV_uu-136" value="" style="rounded=0;whiteSpace=wrap;html=1;fillColor=#ffe6cc;strokeColor=#d79b00;fontFamily=Helvetica;" parent="1" vertex="1">
          <mxGeometry x="120" y="140" width="400" height="60" as="geometry" />
        </mxCell>
        <mxCell id="w2WjnWx_LfguR5dHV_uu-2" value="" style="rounded=0;whiteSpace=wrap;html=1;fontFamily=Helvetica;" parent="1" vertex="1">
          <mxGeometry x="120" y="40" width="400" height="100" as="geometry" />
        </mxCell>
        <mxCell id="w2WjnWx_LfguR5dHV_uu-3" value="eBikes Rental Brno" style="text;html=1;align=center;verticalAlign=middle;whiteSpace=wrap;rounded=0;fontSize=18;fontStyle=1;spacing=0;spacingLeft=0;fontFamily=Helvetica;fontColor=#A680B8;" parent="1" vertex="1">
          <mxGeometry x="150" y="75" width="170" height="30" as="geometry" />
        </mxCell>
        <mxCell id="w2WjnWx_LfguR5dHV_uu-5" value="Prices" style="text;html=1;align=left;verticalAlign=middle;whiteSpace=wrap;rounded=0;fontStyle=1;fontSize=14;fontFamily=Helvetica;spacing=0;" parent="1" vertex="1">
          <mxGeometry x="150" y="162.5" width="50" height="15" as="geometry" />
        </mxCell>
        <mxCell id="w2WjnWx_LfguR5dHV_uu-125" value="" style="group;fontFamily=Helvetica;spacing=0;" parent="1" vertex="1" connectable="0">
          <mxGeometry x="150" y="209" width="150" height="180" as="geometry" />
        </mxCell>
        <mxCell id="w2WjnWx_LfguR5dHV_uu-33" value="Prices" style="text;strokeColor=none;fillColor=none;fontSize=16;fontStyle=1;verticalAlign=middle;align=left;spacingLeft=0;spacing=0;fontFamily=Helvetica;" parent="w2WjnWx_LfguR5dHV_uu-125" vertex="1">
          <mxGeometry width="100" height="40" as="geometry" />
        </mxCell>
        <mxCell id="w2WjnWx_LfguR5dHV_uu-91" value="" style="group;fontFamily=Helvetica;" parent="w2WjnWx_LfguR5dHV_uu-125" vertex="1" connectable="0">
          <mxGeometry y="40" width="150" height="140" as="geometry" />
        </mxCell>
        <mxCell id="w2WjnWx_LfguR5dHV_uu-23" value="" style="shape=table;startSize=0;container=1;collapsible=0;childLayout=tableLayout;fontSize=11;fillColor=none;strokeColor=default;align=left;strokeWidth=1;perimeterSpacing=0;opacity=20;spacing=0;spacingLeft=0;fontFamily=Helvetica;" parent="w2WjnWx_LfguR5dHV_uu-91" vertex="1">
          <mxGeometry width="70" height="140" as="geometry" />
        </mxCell>
        <mxCell id="w2WjnWx_LfguR5dHV_uu-24" value="" style="shape=tableRow;horizontal=0;startSize=0;swimlaneHead=0;swimlaneBody=0;strokeColor=inherit;top=0;left=0;bottom=0;right=0;collapsible=0;dropTarget=0;fillColor=none;points=[[0,0.5],[1,0.5]];portConstraint=eastwest;fontSize=16;fontFamily=Helvetica;" parent="w2WjnWx_LfguR5dHV_uu-23" vertex="1">
          <mxGeometry width="70" height="20" as="geometry" />
        </mxCell>
        <mxCell id="w2WjnWx_LfguR5dHV_uu-25" value="1 day" style="shape=partialRectangle;html=1;whiteSpace=wrap;connectable=0;strokeColor=default;overflow=hidden;fillColor=none;top=0;left=0;bottom=0;right=0;pointerEvents=1;fontSize=12;align=left;spacingLeft=5;verticalAlign=middle;spacing=0;fontFamily=Helvetica;" parent="w2WjnWx_LfguR5dHV_uu-24" vertex="1">
          <mxGeometry width="70" height="20" as="geometry">
            <mxRectangle width="70" height="20" as="alternateBounds" />
          </mxGeometry>
        </mxCell>
        <mxCell id="w2WjnWx_LfguR5dHV_uu-26" value="" style="shape=tableRow;horizontal=0;startSize=0;swimlaneHead=0;swimlaneBody=0;strokeColor=inherit;top=0;left=0;bottom=0;right=0;collapsible=0;dropTarget=0;fillColor=none;points=[[0,0.5],[1,0.5]];portConstraint=eastwest;fontSize=16;fontFamily=Helvetica;" parent="w2WjnWx_LfguR5dHV_uu-23" vertex="1">
          <mxGeometry y="20" width="70" height="30" as="geometry" />
        </mxCell>
        <mxCell id="w2WjnWx_LfguR5dHV_uu-27" value="3 days" style="shape=partialRectangle;html=1;whiteSpace=wrap;connectable=0;strokeColor=inherit;overflow=hidden;fillColor=none;top=0;left=0;bottom=0;right=0;pointerEvents=1;fontSize=12;align=left;spacingLeft=5;spacing=0;fontFamily=Helvetica;" parent="w2WjnWx_LfguR5dHV_uu-26" vertex="1">
          <mxGeometry width="70" height="30" as="geometry">
            <mxRectangle width="70" height="30" as="alternateBounds" />
          </mxGeometry>
        </mxCell>
        <mxCell id="w2WjnWx_LfguR5dHV_uu-28" value="" style="shape=tableRow;horizontal=0;startSize=0;swimlaneHead=0;swimlaneBody=0;strokeColor=inherit;top=0;left=0;bottom=0;right=0;collapsible=0;dropTarget=0;fillColor=none;points=[[0,0.5],[1,0.5]];portConstraint=eastwest;fontSize=16;fontFamily=Helvetica;" parent="w2WjnWx_LfguR5dHV_uu-23" vertex="1">
          <mxGeometry y="50" width="70" height="30" as="geometry" />
        </mxCell>
        <mxCell id="w2WjnWx_LfguR5dHV_uu-29" value="7 days" style="shape=partialRectangle;html=1;whiteSpace=wrap;connectable=0;strokeColor=inherit;overflow=hidden;fillColor=none;top=0;left=0;bottom=0;right=0;pointerEvents=1;fontSize=12;align=left;spacingLeft=5;spacing=0;fontFamily=Helvetica;" parent="w2WjnWx_LfguR5dHV_uu-28" vertex="1">
          <mxGeometry width="70" height="30" as="geometry">
            <mxRectangle width="70" height="30" as="alternateBounds" />
          </mxGeometry>
        </mxCell>
        <mxCell id="w2WjnWx_LfguR5dHV_uu-30" style="shape=tableRow;horizontal=0;startSize=0;swimlaneHead=0;swimlaneBody=0;strokeColor=inherit;top=0;left=0;bottom=0;right=0;collapsible=0;dropTarget=0;fillColor=none;points=[[0,0.5],[1,0.5]];portConstraint=eastwest;fontSize=16;spacingLeft=1;fontFamily=Helvetica;" parent="w2WjnWx_LfguR5dHV_uu-23" vertex="1">
          <mxGeometry y="80" width="70" height="30" as="geometry" />
        </mxCell>
        <mxCell id="w2WjnWx_LfguR5dHV_uu-31" value="&amp;gt; 7 days" style="shape=partialRectangle;html=1;whiteSpace=wrap;connectable=0;strokeColor=default;overflow=hidden;fillColor=none;top=0;left=0;bottom=0;right=0;pointerEvents=1;fontSize=12;align=left;spacingLeft=5;spacing=0;perimeterSpacing=1;fontFamily=Helvetica;" parent="w2WjnWx_LfguR5dHV_uu-30" vertex="1">
          <mxGeometry width="70" height="30" as="geometry">
            <mxRectangle width="70" height="30" as="alternateBounds" />
          </mxGeometry>
        </mxCell>
        <mxCell id="w2WjnWx_LfguR5dHV_uu-54" style="shape=tableRow;horizontal=0;startSize=0;swimlaneHead=0;swimlaneBody=0;strokeColor=inherit;top=0;left=0;bottom=0;right=0;collapsible=0;dropTarget=0;fillColor=none;points=[[0,0.5],[1,0.5]];portConstraint=eastwest;fontSize=16;spacingLeft=1;fontFamily=Helvetica;" parent="w2WjnWx_LfguR5dHV_uu-23" vertex="1">
          <mxGeometry y="110" width="70" height="30" as="geometry" />
        </mxCell>
        <mxCell id="w2WjnWx_LfguR5dHV_uu-55" value="&amp;gt; 14 days" style="shape=partialRectangle;html=1;whiteSpace=wrap;connectable=0;strokeColor=default;overflow=hidden;fillColor=none;top=0;left=0;bottom=0;right=0;pointerEvents=1;fontSize=12;align=left;spacingLeft=5;spacing=0;perimeterSpacing=1;fontFamily=Helvetica;" parent="w2WjnWx_LfguR5dHV_uu-54" vertex="1">
          <mxGeometry width="70" height="30" as="geometry">
            <mxRectangle width="70" height="30" as="alternateBounds" />
          </mxGeometry>
        </mxCell>
        <mxCell id="w2WjnWx_LfguR5dHV_uu-36" value="" style="shape=table;startSize=0;container=1;collapsible=0;childLayout=tableLayout;fontSize=11;fillColor=none;strokeColor=default;align=left;strokeWidth=1;perimeterSpacing=0;opacity=20;spacingLeft=0;spacing=0;fontFamily=Helvetica;" parent="w2WjnWx_LfguR5dHV_uu-91" vertex="1">
          <mxGeometry x="70" width="80" height="140" as="geometry" />
        </mxCell>
        <mxCell id="w2WjnWx_LfguR5dHV_uu-37" value="" style="shape=tableRow;horizontal=0;startSize=0;swimlaneHead=0;swimlaneBody=0;strokeColor=inherit;top=0;left=0;bottom=0;right=0;collapsible=0;dropTarget=0;fillColor=none;points=[[0,0.5],[1,0.5]];portConstraint=eastwest;fontSize=16;fontFamily=Helvetica;" parent="w2WjnWx_LfguR5dHV_uu-36" vertex="1">
          <mxGeometry width="80" height="20" as="geometry" />
        </mxCell>
        <mxCell id="w2WjnWx_LfguR5dHV_uu-38" value="700" style="shape=partialRectangle;html=1;whiteSpace=wrap;connectable=0;strokeColor=default;overflow=hidden;fillColor=none;top=0;left=0;bottom=0;right=0;pointerEvents=1;fontSize=12;align=left;spacingLeft=5;verticalAlign=middle;spacing=0;fontFamily=Helvetica;" parent="w2WjnWx_LfguR5dHV_uu-37" vertex="1">
          <mxGeometry width="80" height="20" as="geometry">
            <mxRectangle width="80" height="20" as="alternateBounds" />
          </mxGeometry>
        </mxCell>
        <mxCell id="w2WjnWx_LfguR5dHV_uu-39" value="" style="shape=tableRow;horizontal=0;startSize=0;swimlaneHead=0;swimlaneBody=0;strokeColor=inherit;top=0;left=0;bottom=0;right=0;collapsible=0;dropTarget=0;fillColor=none;points=[[0,0.5],[1,0.5]];portConstraint=eastwest;fontSize=16;fontFamily=Helvetica;" parent="w2WjnWx_LfguR5dHV_uu-36" vertex="1">
          <mxGeometry y="20" width="80" height="30" as="geometry" />
        </mxCell>
        <mxCell id="w2WjnWx_LfguR5dHV_uu-40" value="2000" style="shape=partialRectangle;html=1;whiteSpace=wrap;connectable=0;strokeColor=inherit;overflow=hidden;fillColor=none;top=0;left=0;bottom=0;right=0;pointerEvents=1;fontSize=12;align=left;spacingLeft=5;spacing=0;fontFamily=Helvetica;" parent="w2WjnWx_LfguR5dHV_uu-39" vertex="1">
          <mxGeometry width="80" height="30" as="geometry">
            <mxRectangle width="80" height="30" as="alternateBounds" />
          </mxGeometry>
        </mxCell>
        <mxCell id="w2WjnWx_LfguR5dHV_uu-41" value="" style="shape=tableRow;horizontal=0;startSize=0;swimlaneHead=0;swimlaneBody=0;strokeColor=inherit;top=0;left=0;bottom=0;right=0;collapsible=0;dropTarget=0;fillColor=none;points=[[0,0.5],[1,0.5]];portConstraint=eastwest;fontSize=16;fontFamily=Helvetica;" parent="w2WjnWx_LfguR5dHV_uu-36" vertex="1">
          <mxGeometry y="50" width="80" height="30" as="geometry" />
        </mxCell>
        <mxCell id="w2WjnWx_LfguR5dHV_uu-42" value="4000" style="shape=partialRectangle;html=1;whiteSpace=wrap;connectable=0;strokeColor=inherit;overflow=hidden;fillColor=none;top=0;left=0;bottom=0;right=0;pointerEvents=1;fontSize=12;align=left;spacingLeft=5;spacing=0;fontFamily=Helvetica;" parent="w2WjnWx_LfguR5dHV_uu-41" vertex="1">
          <mxGeometry width="80" height="30" as="geometry">
            <mxRectangle width="80" height="30" as="alternateBounds" />
          </mxGeometry>
        </mxCell>
        <mxCell id="w2WjnWx_LfguR5dHV_uu-43" style="shape=tableRow;horizontal=0;startSize=0;swimlaneHead=0;swimlaneBody=0;strokeColor=inherit;top=0;left=0;bottom=0;right=0;collapsible=0;dropTarget=0;fillColor=none;points=[[0,0.5],[1,0.5]];portConstraint=eastwest;fontSize=16;fontFamily=Helvetica;" parent="w2WjnWx_LfguR5dHV_uu-36" vertex="1">
          <mxGeometry y="80" width="80" height="30" as="geometry" />
        </mxCell>
        <mxCell id="w2WjnWx_LfguR5dHV_uu-44" value="500 per day" style="shape=partialRectangle;html=1;whiteSpace=wrap;connectable=0;strokeColor=default;overflow=hidden;fillColor=none;top=0;left=0;bottom=0;right=0;pointerEvents=1;fontSize=12;align=left;spacingLeft=5;spacing=0;perimeterSpacing=1;fontFamily=Helvetica;" parent="w2WjnWx_LfguR5dHV_uu-43" vertex="1">
          <mxGeometry width="80" height="30" as="geometry">
            <mxRectangle width="80" height="30" as="alternateBounds" />
          </mxGeometry>
        </mxCell>
        <mxCell id="w2WjnWx_LfguR5dHV_uu-56" style="shape=tableRow;horizontal=0;startSize=0;swimlaneHead=0;swimlaneBody=0;strokeColor=inherit;top=0;left=0;bottom=0;right=0;collapsible=0;dropTarget=0;fillColor=none;points=[[0,0.5],[1,0.5]];portConstraint=eastwest;fontSize=16;fontFamily=Helvetica;" parent="w2WjnWx_LfguR5dHV_uu-36" vertex="1">
          <mxGeometry y="110" width="80" height="30" as="geometry" />
        </mxCell>
        <mxCell id="w2WjnWx_LfguR5dHV_uu-57" value="400 per day" style="shape=partialRectangle;html=1;whiteSpace=wrap;connectable=0;strokeColor=default;overflow=hidden;fillColor=none;top=0;left=0;bottom=0;right=0;pointerEvents=1;fontSize=12;align=left;spacingLeft=5;spacing=0;perimeterSpacing=1;fontFamily=Helvetica;" parent="w2WjnWx_LfguR5dHV_uu-56" vertex="1">
          <mxGeometry width="80" height="30" as="geometry">
            <mxRectangle width="80" height="30" as="alternateBounds" />
          </mxGeometry>
        </mxCell>
        <mxCell id="w2WjnWx_LfguR5dHV_uu-131" value="Deposit" style="text;strokeColor=none;fillColor=none;fontSize=16;fontStyle=1;verticalAlign=middle;align=left;spacingLeft=0;spacing=0;fontFamily=Helvetica;" parent="1" vertex="1">
          <mxGeometry x="150" y="389" width="100" height="40" as="geometry" />
        </mxCell>
        <mxCell id="w2WjnWx_LfguR5dHV_uu-132" value="5000 per 1 eBike" style="text;html=1;align=left;verticalAlign=middle;whiteSpace=wrap;rounded=0;fontFamily=Helvetica;" parent="1" vertex="1">
          <mxGeometry x="150" y="419" width="110" height="30" as="geometry" />
        </mxCell>
        <mxCell id="w2WjnWx_LfguR5dHV_uu-123" value="" style="group;fontFamily=Helvetica;" parent="1" vertex="1" connectable="0">
          <mxGeometry x="120" y="499" width="400" height="450" as="geometry" />
        </mxCell>
        <mxCell id="w2WjnWx_LfguR5dHV_uu-60" value="&lt;div&gt;&lt;br&gt;&lt;/div&gt;" style="rounded=0;whiteSpace=wrap;html=1;container=0;fontFamily=Helvetica;" parent="w2WjnWx_LfguR5dHV_uu-123" vertex="1">
          <mxGeometry width="400" height="450" as="geometry" />
        </mxCell>
        <mxCell id="w2WjnWx_LfguR5dHV_uu-61" value="Our eBikes" style="text;strokeColor=none;fillColor=none;html=1;fontSize=16;fontStyle=1;verticalAlign=middle;align=center;fontFamily=Helvetica;" parent="w2WjnWx_LfguR5dHV_uu-123" vertex="1">
          <mxGeometry x="125" y="10" width="150" height="40" as="geometry" />
        </mxCell>
        <mxCell id="w2WjnWx_LfguR5dHV_uu-62" value="" style="shape=image;verticalLabelPosition=bottom;labelBackgroundColor=default;verticalAlign=top;aspect=fixed;imageAspect=0;image=https://www.rkcyklos.cz/sites/default/files/styles/large/public/images/produkt/1_2051.jpg?itok=M1wQoRJO;spacing=0;spacingLeft=5;fontFamily=Helvetica;direction=east;" parent="w2WjnWx_LfguR5dHV_uu-123" vertex="1">
          <mxGeometry x="30" y="60" width="139.82500000000002" height="104.86875" as="geometry" />
        </mxCell>
        <mxCell id="w2WjnWx_LfguR5dHV_uu-65" value="Crussis e-Atland 5.8 2023" style="text;strokeColor=none;fillColor=none;fontSize=12;fontStyle=0;verticalAlign=middle;align=left;fontColor=default;horizontal=1;fontFamily=Helvetica;" parent="w2WjnWx_LfguR5dHV_uu-123" vertex="1">
          <mxGeometry x="30.000000000000004" y="165" width="140.00000000000003" height="30" as="geometry" />
        </mxCell>
        <mxCell id="w2WjnWx_LfguR5dHV_uu-66" value="Dojezd: 115 km&#xa;Velikost rámu: 18&quot;, 20&quot;&#xa;Průměr kol: 27.5&quot;" style="text;align=left;verticalAlign=middle;rounded=0;spacing=2;textShadow=0;fontSize=10;fontFamily=Helvetica;" parent="w2WjnWx_LfguR5dHV_uu-123" vertex="1">
          <mxGeometry x="30.000000000000004" y="190" width="140.00000000000003" height="35" as="geometry" />
        </mxCell>
        <mxCell id="w2WjnWx_LfguR5dHV_uu-68" value="Crussis e-Cross 7.8 2023" style="text;strokeColor=none;fillColor=none;fontSize=12;fontStyle=0;verticalAlign=middle;align=left;fontColor=default;horizontal=1;fontFamily=Helvetica;" parent="w2WjnWx_LfguR5dHV_uu-123" vertex="1">
          <mxGeometry x="230.00000000000003" y="165" width="140.00000000000003" height="30" as="geometry" />
        </mxCell>
        <mxCell id="w2WjnWx_LfguR5dHV_uu-71" value="" style="shape=image;verticalLabelPosition=bottom;labelBackgroundColor=default;verticalAlign=top;aspect=fixed;imageAspect=0;image=https://www.rkcyklos.cz/sites/default/files/styles/large/public/images/produkt/1_2101.jpg?itok=wUofIBJx;fontFamily=Helvetica;" parent="w2WjnWx_LfguR5dHV_uu-123" vertex="1">
          <mxGeometry x="30.000000000000004" y="245" width="139.82500000000002" height="104.86875" as="geometry" />
        </mxCell>
        <mxCell id="w2WjnWx_LfguR5dHV_uu-72" value="Crussis e-Atland 5.8 2023" style="text;strokeColor=none;fillColor=none;fontSize=12;fontStyle=0;verticalAlign=middle;align=left;fontColor=default;horizontal=1;fontFamily=Helvetica;" parent="w2WjnWx_LfguR5dHV_uu-123" vertex="1">
          <mxGeometry x="30.000000000000004" y="350" width="140.00000000000003" height="30" as="geometry" />
        </mxCell>
        <mxCell id="w2WjnWx_LfguR5dHV_uu-84" value="Dojezd: 50 km&#xa;Velikost rámu: 15&quot;, 17&quot;&#xa;Průměr kol: 28&quot;" style="text;align=left;verticalAlign=middle;rounded=0;spacing=2;textShadow=0;fontSize=10;fontFamily=Helvetica;" parent="w2WjnWx_LfguR5dHV_uu-123" vertex="1">
          <mxGeometry x="30.000000000000004" y="375" width="140.00000000000003" height="40" as="geometry" />
        </mxCell>
        <mxCell id="w2WjnWx_LfguR5dHV_uu-85" value="Dojezd: 130 km&#xa;Velikost rámu: 18&quot;, 20&quot;&#xa;Průměr kol: 28&quot;" style="text;align=left;verticalAlign=middle;rounded=0;spacing=2;textShadow=0;fontSize=10;fontFamily=Helvetica;" parent="w2WjnWx_LfguR5dHV_uu-123" vertex="1">
          <mxGeometry x="230.00000000000003" y="185" width="140.00000000000003" height="45" as="geometry" />
        </mxCell>
        <mxCell id="w2WjnWx_LfguR5dHV_uu-93" value="&lt;table style=&quot;font-size: 10px;&quot; id=&quot;c6f89046-6ac3-40c1-99d6-dcb501708ef7&quot; class=&quot;simple-table&quot;&gt;&lt;tbody style=&quot;font-size: 10px;&quot;&gt;&lt;tr style=&quot;font-size: 10px;&quot; id=&quot;8b9699a0-0600-49b5-a3df-e404fe3b0f85&quot;&gt;&lt;td style=&quot;font-size: 10px;&quot; id=&quot;YSar&quot; class=&quot;&quot;&gt;&lt;strong style=&quot;font-size: 10px;&quot;&gt;Výška postavy&lt;/strong&gt;&lt;/td&gt;&lt;td style=&quot;font-size: 10px;&quot; id=&quot;;PiE&quot; class=&quot;&quot;&gt;&lt;strong style=&quot;font-size: 10px;&quot;&gt;Horská kola 27,5&quot;&lt;/strong&gt;&lt;/td&gt;&lt;/tr&gt;&lt;tr style=&quot;font-size: 10px;&quot; id=&quot;5bc2df24-02a4-4b25-8985-21697ee30082&quot;&gt;&lt;td style=&quot;font-size: 10px;&quot; id=&quot;YSar&quot; class=&quot;&quot;&gt;&lt;strong style=&quot;font-size: 10px;&quot;&gt;150 až 160&lt;/strong&gt;&lt;/td&gt;&lt;td style=&quot;font-size: 10px;&quot; id=&quot;;PiE&quot; class=&quot;&quot;&gt;15&quot; - 16&quot;(S)&lt;/td&gt;&lt;/tr&gt;&lt;tr style=&quot;font-size: 10px;&quot; id=&quot;de0cf829-a11a-415a-af9d-108c7bf8052a&quot;&gt;&lt;td style=&quot;font-size: 10px;&quot; id=&quot;YSar&quot; class=&quot;&quot;&gt;&lt;strong style=&quot;font-size: 10px;&quot;&gt;160 až 165&lt;/strong&gt;&lt;/td&gt;&lt;td style=&quot;font-size: 10px;&quot; id=&quot;;PiE&quot; class=&quot;&quot;&gt;16&quot; - 17&quot;&amp;nbsp;(S-M)&lt;/td&gt;&lt;/tr&gt;&lt;tr style=&quot;font-size: 10px;&quot; id=&quot;29f90cfd-e6dd-48df-ab7f-b05000443bfb&quot;&gt;&lt;td style=&quot;font-size: 10px;&quot; id=&quot;YSar&quot; class=&quot;&quot;&gt;&lt;strong style=&quot;font-size: 10px;&quot;&gt;166 až 175&lt;/strong&gt;&lt;/td&gt;&lt;td style=&quot;font-size: 10px;&quot; id=&quot;;PiE&quot; class=&quot;&quot;&gt;17&quot;&amp;nbsp;- 18&quot;&amp;nbsp;(M)&lt;/td&gt;&lt;/tr&gt;&lt;tr style=&quot;font-size: 10px;&quot; id=&quot;a1784de7-53a7-4271-a67d-ada34968346c&quot;&gt;&lt;td style=&quot;font-size: 10px;&quot; id=&quot;YSar&quot; class=&quot;&quot;&gt;&lt;strong style=&quot;font-size: 10px;&quot;&gt;176 až 180&lt;/strong&gt;&lt;/td&gt;&lt;td style=&quot;font-size: 10px;&quot; id=&quot;;PiE&quot; class=&quot;&quot;&gt;18&quot; - 19&quot;&amp;nbsp;(M-L)&lt;/td&gt;&lt;/tr&gt;&lt;tr style=&quot;font-size: 10px;&quot; id=&quot;5783fa0f-9531-4f67-b716-bd8effa48b57&quot;&gt;&lt;td style=&quot;font-size: 10px;&quot; id=&quot;YSar&quot; class=&quot;&quot;&gt;&lt;strong style=&quot;font-size: 10px;&quot;&gt;181 až 185&lt;/strong&gt;&lt;/td&gt;&lt;td style=&quot;font-size: 10px;&quot; id=&quot;;PiE&quot; class=&quot;&quot;&gt;19&quot; - 20&quot;&amp;nbsp;(L)&lt;/td&gt;&lt;/tr&gt;&lt;tr style=&quot;font-size: 10px;&quot; id=&quot;ec5fdc8f-e787-4979-a65f-cd2bca433adf&quot;&gt;&lt;td style=&quot;font-size: 10px;&quot; id=&quot;YSar&quot; class=&quot;&quot;&gt;&lt;strong style=&quot;font-size: 10px;&quot;&gt;185 až 190&lt;/strong&gt;&lt;/td&gt;&lt;td style=&quot;font-size: 10px;&quot; id=&quot;;PiE&quot; class=&quot;&quot;&gt;20&quot; - 21&quot;&amp;nbsp;(L-XL)&lt;/td&gt;&lt;/tr&gt;&lt;tr style=&quot;font-size: 10px;&quot; id=&quot;a3dd955b-72cc-4c19-884f-b1804748cc50&quot;&gt;&lt;td style=&quot;font-size: 10px;&quot; id=&quot;YSar&quot; class=&quot;&quot;&gt;&lt;strong style=&quot;font-size: 10px;&quot;&gt;190 až 195&lt;/strong&gt;&lt;/td&gt;&lt;td style=&quot;font-size: 10px;&quot; id=&quot;;PiE&quot; class=&quot;&quot;&gt;21&quot; - 22&quot;&amp;nbsp;(XL)&lt;/td&gt;&lt;/tr&gt;&lt;tr style=&quot;font-size: 10px;&quot; id=&quot;f3f36ef9-fa66-45eb-b261-7eca41738bb3&quot;&gt;&lt;td style=&quot;font-size: 10px;&quot; id=&quot;YSar&quot; class=&quot;&quot;&gt;&lt;strong style=&quot;font-size: 10px;&quot;&gt;195 až 200+&lt;/strong&gt;&lt;/td&gt;&lt;td style=&quot;font-size: 10px;&quot; id=&quot;;PiE&quot; class=&quot;&quot;&gt;23&quot;&amp;nbsp;(XXL)&lt;/td&gt;&lt;/tr&gt;&lt;/tbody&gt;&lt;/table&gt;" style="text;html=1;fontSize=10;spacing=0;verticalAlign=middle;whiteSpace=wrap;horizontal=1;fontFamily=Helvetica;" parent="w2WjnWx_LfguR5dHV_uu-123" vertex="1">
          <mxGeometry x="219" y="245" width="171" height="155" as="geometry" />
        </mxCell>
        <mxCell id="w2WjnWx_LfguR5dHV_uu-67" value="" style="shape=image;verticalLabelPosition=bottom;labelBackgroundColor=default;verticalAlign=top;aspect=fixed;imageAspect=0;image=https://www.rkcyklos.cz/sites/default/files/styles/large/public/images/produkt/1_2118.jpg?itok=vNE4oquI;fontFamily=Helvetica;direction=east;" parent="w2WjnWx_LfguR5dHV_uu-123" vertex="1">
          <mxGeometry x="230.00000000000003" y="60" width="139.82500000000002" height="104.86875" as="geometry" />
        </mxCell>
        <mxCell id="w2WjnWx_LfguR5dHV_uu-135" value="Our eBikes" style="text;html=1;align=left;verticalAlign=middle;whiteSpace=wrap;rounded=0;fontStyle=1;fontSize=14;fontFamily=Helvetica;spacing=0;" parent="1" vertex="1">
          <mxGeometry x="225" y="155" width="85" height="30" as="geometry" />
        </mxCell>
        <mxCell id="w2WjnWx_LfguR5dHV_uu-137" value="Rules" style="text;html=1;align=left;verticalAlign=middle;whiteSpace=wrap;rounded=0;fontStyle=1;fontSize=14;fontFamily=Helvetica;spacing=0;" parent="1" vertex="1">
          <mxGeometry x="333.75" y="155" width="85" height="30" as="geometry" />
        </mxCell>
        <mxCell id="w2WjnWx_LfguR5dHV_uu-98" value="" style="group;fontFamily=Helvetica;" parent="1" vertex="1" connectable="0">
          <mxGeometry x="333.75" y="219" width="150" height="140" as="geometry" />
        </mxCell>
        <mxCell id="w2WjnWx_LfguR5dHV_uu-99" value="" style="shape=table;startSize=0;container=1;collapsible=0;childLayout=tableLayout;fontSize=11;fillColor=none;strokeColor=default;align=left;strokeWidth=1;perimeterSpacing=0;opacity=20;spacing=0;spacingLeft=0;fontFamily=Helvetica;" parent="w2WjnWx_LfguR5dHV_uu-98" vertex="1">
          <mxGeometry y="30" width="70" height="90" as="geometry" />
        </mxCell>
        <mxCell id="w2WjnWx_LfguR5dHV_uu-100" value="" style="shape=tableRow;horizontal=0;startSize=0;swimlaneHead=0;swimlaneBody=0;strokeColor=inherit;top=0;left=0;bottom=0;right=0;collapsible=0;dropTarget=0;fillColor=none;points=[[0,0.5],[1,0.5]];portConstraint=eastwest;fontSize=16;fontFamily=Helvetica;" parent="w2WjnWx_LfguR5dHV_uu-99" vertex="1">
          <mxGeometry width="70" height="23" as="geometry" />
        </mxCell>
        <mxCell id="w2WjnWx_LfguR5dHV_uu-101" value="Helms" style="shape=partialRectangle;html=1;whiteSpace=wrap;connectable=0;strokeColor=default;overflow=hidden;fillColor=none;top=0;left=0;bottom=0;right=0;pointerEvents=1;fontSize=12;align=left;spacingLeft=5;verticalAlign=middle;spacing=0;fontFamily=Helvetica;" parent="w2WjnWx_LfguR5dHV_uu-100" vertex="1">
          <mxGeometry width="70" height="23" as="geometry">
            <mxRectangle width="70" height="23" as="alternateBounds" />
          </mxGeometry>
        </mxCell>
        <mxCell id="w2WjnWx_LfguR5dHV_uu-102" value="" style="shape=tableRow;horizontal=0;startSize=0;swimlaneHead=0;swimlaneBody=0;strokeColor=inherit;top=0;left=0;bottom=0;right=0;collapsible=0;dropTarget=0;fillColor=none;points=[[0,0.5],[1,0.5]];portConstraint=eastwest;fontSize=16;fontFamily=Helvetica;" parent="w2WjnWx_LfguR5dHV_uu-99" vertex="1">
          <mxGeometry y="23" width="70" height="33" as="geometry" />
        </mxCell>
        <mxCell id="w2WjnWx_LfguR5dHV_uu-103" value="Phone mounts" style="shape=partialRectangle;html=1;whiteSpace=wrap;connectable=0;strokeColor=inherit;overflow=hidden;fillColor=none;top=0;left=0;bottom=0;right=0;pointerEvents=1;fontSize=12;align=left;spacingLeft=5;spacing=0;fontFamily=Helvetica;" parent="w2WjnWx_LfguR5dHV_uu-102" vertex="1">
          <mxGeometry width="70" height="33" as="geometry">
            <mxRectangle width="70" height="33" as="alternateBounds" />
          </mxGeometry>
        </mxCell>
        <mxCell id="w2WjnWx_LfguR5dHV_uu-104" value="" style="shape=tableRow;horizontal=0;startSize=0;swimlaneHead=0;swimlaneBody=0;strokeColor=inherit;top=0;left=0;bottom=0;right=0;collapsible=0;dropTarget=0;fillColor=none;points=[[0,0.5],[1,0.5]];portConstraint=eastwest;fontSize=16;fontFamily=Helvetica;" parent="w2WjnWx_LfguR5dHV_uu-99" vertex="1">
          <mxGeometry y="56" width="70" height="34" as="geometry" />
        </mxCell>
        <mxCell id="w2WjnWx_LfguR5dHV_uu-105" value="Bags" style="shape=partialRectangle;html=1;whiteSpace=wrap;connectable=0;strokeColor=inherit;overflow=hidden;fillColor=none;top=0;left=0;bottom=0;right=0;pointerEvents=1;fontSize=12;align=left;spacingLeft=5;spacing=0;fontFamily=Helvetica;" parent="w2WjnWx_LfguR5dHV_uu-104" vertex="1">
          <mxGeometry width="70" height="34" as="geometry">
            <mxRectangle width="70" height="34" as="alternateBounds" />
          </mxGeometry>
        </mxCell>
        <mxCell id="w2WjnWx_LfguR5dHV_uu-110" value="" style="shape=table;startSize=0;container=1;collapsible=0;childLayout=tableLayout;fontSize=11;fillColor=none;strokeColor=default;align=left;strokeWidth=1;perimeterSpacing=0;opacity=20;spacingLeft=0;spacing=0;fontFamily=Helvetica;" parent="w2WjnWx_LfguR5dHV_uu-98" vertex="1">
          <mxGeometry x="70" y="30" width="80" height="90" as="geometry" />
        </mxCell>
        <mxCell id="w2WjnWx_LfguR5dHV_uu-111" value="" style="shape=tableRow;horizontal=0;startSize=0;swimlaneHead=0;swimlaneBody=0;strokeColor=inherit;top=0;left=0;bottom=0;right=0;collapsible=0;dropTarget=0;fillColor=none;points=[[0,0.5],[1,0.5]];portConstraint=eastwest;fontSize=16;fontFamily=Helvetica;" parent="w2WjnWx_LfguR5dHV_uu-110" vertex="1">
          <mxGeometry width="80" height="23" as="geometry" />
        </mxCell>
        <mxCell id="w2WjnWx_LfguR5dHV_uu-112" value="Free" style="shape=partialRectangle;html=1;whiteSpace=wrap;connectable=0;strokeColor=default;overflow=hidden;fillColor=none;top=0;left=0;bottom=0;right=0;pointerEvents=1;fontSize=12;align=left;spacingLeft=5;verticalAlign=middle;spacing=0;fontFamily=Helvetica;" parent="w2WjnWx_LfguR5dHV_uu-111" vertex="1">
          <mxGeometry width="80" height="23" as="geometry">
            <mxRectangle width="80" height="23" as="alternateBounds" />
          </mxGeometry>
        </mxCell>
        <mxCell id="w2WjnWx_LfguR5dHV_uu-113" value="" style="shape=tableRow;horizontal=0;startSize=0;swimlaneHead=0;swimlaneBody=0;strokeColor=inherit;top=0;left=0;bottom=0;right=0;collapsible=0;dropTarget=0;fillColor=none;points=[[0,0.5],[1,0.5]];portConstraint=eastwest;fontSize=16;fontFamily=Helvetica;" parent="w2WjnWx_LfguR5dHV_uu-110" vertex="1">
          <mxGeometry y="23" width="80" height="33" as="geometry" />
        </mxCell>
        <mxCell id="w2WjnWx_LfguR5dHV_uu-114" value="Free" style="shape=partialRectangle;html=1;whiteSpace=wrap;connectable=0;strokeColor=inherit;overflow=hidden;fillColor=none;top=0;left=0;bottom=0;right=0;pointerEvents=1;fontSize=12;align=left;spacingLeft=5;spacing=0;fontFamily=Helvetica;" parent="w2WjnWx_LfguR5dHV_uu-113" vertex="1">
          <mxGeometry width="80" height="33" as="geometry">
            <mxRectangle width="80" height="33" as="alternateBounds" />
          </mxGeometry>
        </mxCell>
        <mxCell id="w2WjnWx_LfguR5dHV_uu-115" value="" style="shape=tableRow;horizontal=0;startSize=0;swimlaneHead=0;swimlaneBody=0;strokeColor=inherit;top=0;left=0;bottom=0;right=0;collapsible=0;dropTarget=0;fillColor=none;points=[[0,0.5],[1,0.5]];portConstraint=eastwest;fontSize=16;fontFamily=Helvetica;" parent="w2WjnWx_LfguR5dHV_uu-110" vertex="1">
          <mxGeometry y="56" width="80" height="34" as="geometry" />
        </mxCell>
        <mxCell id="w2WjnWx_LfguR5dHV_uu-116" value="Free" style="shape=partialRectangle;html=1;whiteSpace=wrap;connectable=0;strokeColor=inherit;overflow=hidden;fillColor=none;top=0;left=0;bottom=0;right=0;pointerEvents=1;fontSize=12;align=left;spacingLeft=5;spacing=0;fontFamily=Helvetica;" parent="w2WjnWx_LfguR5dHV_uu-115" vertex="1">
          <mxGeometry width="80" height="34" as="geometry">
            <mxRectangle width="80" height="34" as="alternateBounds" />
          </mxGeometry>
        </mxCell>
        <mxCell id="w2WjnWx_LfguR5dHV_uu-95" value="Additions" style="text;strokeColor=none;fillColor=none;fontSize=16;fontStyle=1;verticalAlign=middle;align=left;spacingLeft=0;spacing=0;fontFamily=Helvetica;" parent="w2WjnWx_LfguR5dHV_uu-98" vertex="1">
          <mxGeometry y="-10" width="100" height="40" as="geometry" />
        </mxCell>
        <mxCell id="w2WjnWx_LfguR5dHV_uu-59" value="Tel: +420725543082" style="text;align=left;verticalAlign=middle;rounded=0;spacing=0;spacingLeft=0;html=1;whiteSpace=wrap;fontFamily=Helvetica;" parent="1" vertex="1">
          <mxGeometry x="333.75" y="50" width="122.5" height="20" as="geometry" />
        </mxCell>
        <mxCell id="w2WjnWx_LfguR5dHV_uu-87" value="&lt;span style=&quot;&quot;&gt;Addr:&amp;nbsp;&amp;nbsp;&lt;/span&gt;&lt;span style=&quot;&quot;&gt;Grohova 123/28,&amp;nbsp;602 00&lt;/span&gt;" style="text;html=1;align=left;verticalAlign=middle;whiteSpace=wrap;rounded=0;spacing=0;fontFamily=Helvetica;" parent="1" vertex="1">
          <mxGeometry x="333.75" y="75" width="166.25" height="20" as="geometry" />
        </mxCell>
        <mxCell id="w2WjnWx_LfguR5dHV_uu-88" value="&lt;div&gt;&lt;b style=&quot;background-color: initial;&quot;&gt;Opening hours: Only up to prior agreement.&lt;/b&gt;&lt;br&gt;&lt;/div&gt;" style="text;html=1;align=left;verticalAlign=middle;whiteSpace=wrap;rounded=0;spacing=0;fontFamily=Helvetica;" parent="1" vertex="1">
          <mxGeometry x="333.75" y="95" width="150" height="40" as="geometry" />
        </mxCell>
      </root>
    </mxGraphModel>
  </diagram>
</mxfile>
